HIERARCHY
ROOT Hips
{
  OFFSET 91.165 99.3414 -47.619
  CHANNELS 6 Xposition Yposition Zposition Zrotation Xrotation Yrotation
  JOINT LHipJoint
  {
    OFFSET 0 0 0
    CHANNELS 6 Xposition Yposition Zposition Zrotation Xrotation Yrotation
    JOINT LeftUpLeg
    {
      OFFSET 9.46628 -9.93132 3.97552
      CHANNELS 6 Xposition Yposition Zposition Zrotation Xrotation Yrotation
      JOINT LeftLeg
      {
        OFFSET 13.8252 -37.9844 0
        CHANNELS 6 Xposition Yposition Zposition Zrotation Xrotation Yrotation
        JOINT LeftFoot
        {
          OFFSET 14.7484 -40.5208 0
          CHANNELS 6 Xposition Yposition Zposition Zrotation Xrotation Yrotation
          JOINT LeftToeBase
          {
            OFFSET 1.00532 -2.7609 10.3019
            CHANNELS 6 Xposition Yposition Zposition Zrotation Xrotation Yrotation
            End Site
            {
              OFFSET -0.00632173 -0.0164816 5.39401
            }
          }
        }
      }
    }
  }
  JOINT RHipJoint
  {
    OFFSET 0 0 0
    CHANNELS 6 Xposition Yposition Zposition Zrotation Xrotation Yrotation
    JOINT RightUpLeg
    {
      OFFSET -9.13636 -9.93127 3.97552
      CHANNELS 6 Xposition Yposition Zposition Zrotation Xrotation Yrotation
      JOINT RightLeg
      {
        OFFSET -13.3345 -36.6362 0
        CHANNELS 6 Xposition Yposition Zposition Zrotation Xrotation Yrotation
        JOINT RightFoot
        {
          OFFSET -14.9202 -40.993 0
          CHANNELS 6 Xposition Yposition Zposition Zrotation Xrotation Yrotation
          JOINT RightToeBase
          {
            OFFSET -1.02553 -2.81853 10.7352
            CHANNELS 6 Xposition Yposition Zposition Zrotation Xrotation Yrotation
            End Site
            {
              OFFSET 0.00220132 0.0129257 5.60286
            }
          }
        }
      }
    }
  }
  JOINT LowerBack
  {
    OFFSET 0 0 0
    CHANNELS 6 Xposition Yposition Zposition Zrotation Xrotation Yrotation
    JOINT Spine
    {
      OFFSET -0.108711 12.3982 -0.711138
      CHANNELS 6 Xposition Yposition Zposition Zrotation Xrotation Yrotation
      JOINT Spine1
      {
        OFFSET 0.0938664 12.4477 -0.00445908
        CHANNELS 6 Xposition Yposition Zposition Zrotation Xrotation Yrotation
        JOINT Neck
        {
          OFFSET 0 0 0
          CHANNELS 6 Xposition Yposition Zposition Zrotation Xrotation Yrotation
          JOINT Neck1
          {
            OFFSET 0.598532 9.88752 0.802972
            CHANNELS 6 Xposition Yposition Zposition Zrotation Xrotation Yrotation
            JOINT Head
            {
              OFFSET -0.558683 9.51172 -2.73268
              CHANNELS 6 Xposition Yposition Zposition Zrotation Xrotation Yrotation
              End Site
              {
                OFFSET -0.163462 10.0649 -1.03942
              }
            }
          }
        }
        JOINT LeftShoulder
        {
          OFFSET 0 0 0
          CHANNELS 6 Xposition Yposition Zposition Zrotation Xrotation Yrotation
          JOINT LeftArm
          {
            OFFSET 18.6635 6.60163 -1.74226
            CHANNELS 6 Xposition Yposition Zposition Zrotation Xrotation Yrotation
            JOINT LeftForeArm
            {
              OFFSET 30.2139 0 0
              CHANNELS 6 Xposition Yposition Zposition Zrotation Xrotation Yrotation
              JOINT LeftHand
              {
                OFFSET 18.4982 0 0
                CHANNELS 6 Xposition Yposition Zposition Zrotation Xrotation Yrotation
                JOINT LeftFingerBase
                {
                  OFFSET 0 0 0
                  CHANNELS 6 Xposition Yposition Zposition Zrotation Xrotation Yrotation
                  JOINT LeftHandIndex1
                  {
                    OFFSET 3.07298 0.000112888 0.000507996
                    CHANNELS 6 Xposition Yposition Zposition Zrotation Xrotation Yrotation
                    End Site
                    {
                      OFFSET 2.47738 0 0
                    }
                  }
                }
                JOINT LThumb
                {
                  OFFSET 0 0 0
                  CHANNELS 6 Xposition Yposition Zposition Zrotation Xrotation Yrotation
                  End Site
                  {
                    OFFSET 2.51537 0.000112888 2.51571
                  }
                }
              }
            }
          }
        }
        JOINT RightShoulder
        {
          OFFSET 0 0 0
          CHANNELS 6 Xposition Yposition Zposition Zrotation Xrotation Yrotation
          JOINT RightArm
          {
            OFFSET -18.4669 5.52384 -2.03938
            CHANNELS 6 Xposition Yposition Zposition Zrotation Xrotation Yrotation
            JOINT RightForeArm
            {
              OFFSET -31.1614 -0.0178927 -0.033302
              CHANNELS 6 Xposition Yposition Zposition Zrotation Xrotation Yrotation
              JOINT RightHand
              {
                OFFSET -18.76 0 0
                CHANNELS 6 Xposition Yposition Zposition Zrotation Xrotation Yrotation
                JOINT RightFingerBase
                {
                  OFFSET 0 0 0
                  CHANNELS 6 Xposition Yposition Zposition Zrotation Xrotation Yrotation
                  JOINT RightHandIndex1
                  {
                    OFFSET -4.133 0 0
                    CHANNELS 6 Xposition Yposition Zposition Zrotation Xrotation Yrotation
                    End Site
                    {
                      OFFSET -3.33217 0 0
                    }
                  }
                }
                JOINT RThumb
                {
                  OFFSET 0 0 0
                  CHANNELS 6 Xposition Yposition Zposition Zrotation Xrotation Yrotation
                  End Site
                  {
                    OFFSET -3.38303 0 3.38303
                  }
                }
              }
            }
          }
        }
      }
    }
  }
}
MOTION
Frames: 8
Frame Time:	0.00833333
91.165 99.3414 -47.619 0 0 -0 0 0 0 0 0 -0 9.46628 -9.93132 3.97552 -21 0 -0 13.8252 -37.9844 0 0 0 -0 14.7484 -40.5208 0 0 0 -0 1.00532 -2.7609 10.3019 0 0 -0 0 0 0 0 0 -0 -9.13636 -9.93127 3.97552 21 0 -0 -13.3345 -36.6362 0 0 0 -0 -14.9202 -40.993 0 0 0 -0 -1.02553 -2.81853 10.7352 0 0 -0 0 0 0 0 0 -0 -0.108711 12.3982 -0.711138 0 0 -0 0.0938664 12.4477 -0.00445908 0 0 -0 0 0 0 -0 -16 -0 0.598532 9.88752 0.802972 0 21 -0 -0.558683 9.51172 -2.73268 0 11 -0 0 0 0 0 0 -0 18.6635 6.60163 -1.74226 -8 0 -0 30.2139 0 0 0 0 -0 18.4982 0 0 0 0 -0 0 0 0 0 0 -0 3.07298 0.000112888 0.000507996 0 0 -0 0 0 0 0 0 -0 0 0 0 0 0 -0 -18.4669 5.52384 -2.03938 8 0 -0 -31.1614 -0.0178927 -0.033302 0 0 -0 -18.76 0 0 0 0 -0 0 0 0 0 0 -0 -4.133 -2.00529e-14 0 0 0 -0 0 0 0 0 0 -0 
91.2643 131.451 -45.8608 -4.2995 10.021 -4.65984 0 0 0 5.96354e-16 1.59028e-15 -0 9.46628 -9.93132 3.97552 -22.1295 -30.2963 -10.159 13.8252 -37.9844 0 -5.77917 38.1473 16.6111 14.7484 -40.5208 -1.00265e-14 -1.98001 -19.9138 -9.45188 1.00532 -2.7609 10.3019 -0.0115091 1.90706 0.694385 0 0 0 5.96354e-16 1.59028e-15 -0 -9.13636 -9.93127 3.97552 26.499 7.77085 -3.01673 -13.3345 -36.6362 0 0.677839 14.3997 -5.36212 -14.9202 -40.993 0 -0.353295 18.7019 -2.14479 -1.02553 -2.81853 10.7352 0.437898 -11.6319 4.2968 0 0 0 2.64577 4.13892 1.81764 -0.108711 12.3982 -0.711138 -1.2786 -0.354157 2.52195 0.0938664 12.4477 -0.00445908 -2.99125 -2.50714 1.21266 0 0 0 14.73 -16.4323 15.0029 0.598532 9.88752 0.802972 -27.0081 30.931 27.4812 -0.558683 9.51172 -2.73268 -5.07425 18.3287 9.82543 0 0 0 1.54058e-15 -3.18055e-15 -3.97569e-16 18.6635 6.60163 -1.74226 -85.881 -4.82682 -8.48692 30.2139 0 5.01323e-15 13.7853 -2.99118 -24.3759 18.4982 0 0 2.58108e-16 -2.5107 -3.18361e-15 0 0 0 13.0381 6.03161 24.4066 3.07298 0.000112888 0.000507996 -7.125 4.77083e-15 -7.95139e-16 0 0 0 -11.6321 -1.98308 54.5422 0 0 0 1.54058e-15 -3.18055e-15 -3.97569e-16 -18.4669 5.52384 -2.03938 92.8081 28.2569 -8.84615 -31.1614 -0.0178927 -0.033302 -16.5842 -4.4148 29.6281 -18.76 -1.00265e-14 0 3.38526e-15 -3.6826 3.18714e-15 0 0 0 -10.1048 -3.92881 21.0301 -4.133 0 1.00265e-14 7.125 3.18055e-15 -6.36111e-15 0 0 0 12.2333 9.05725 -9.01826 
91.3772 132.001 -43.6109 -3.59645 9.74692 -4.3631 0 0 0 -8.94531e-16 -1.59028e-15 -7.95139e-16 9.46628 -9.93132 3.97552 -22.7157 -27.7385 -8.59382 13.8252 -37.9844 0 -5.04938 36.1186 15.4022 14.7484 -40.5208 0 -1.51816 -20.1778 -8.11563 1.00532 -2.7609 10.3019 -0.0259943 -2.86013 -1.0419 0 0 0 -8.94531e-16 -1.59028e-15 -7.95139e-16 -9.13636 -9.93127 3.97552 25.4215 2.38704 -2.00134 -13.3345 -36.6362 0 2.21412 25.2236 -9.87242 -14.9202 -40.993 0 0.349584 18.1604 -4.4085 -1.02553 -2.81853 10.7352 0.703072 -14.6573 5.46259 0 0 0 0.959766 4.37389 1.17252 -0.108711 12.3982 -0.711138 -1.4029 -0.911457 1.5714 0.0938664 12.4477 -0.00445908 -2.12881 -3.32352 0.748459 0 0 0 14.9526 -14.2087 15.3106 0.598532 9.88752 0.802972 -28.2106 30.5186 28.5014 -0.558683 9.51172 -2.73268 -5.55277 18.1032 10.3602 0 0 0 -2.25496e-15 3.18055e-15 2.48481e-16 18.6635 6.60163 -1.74226 -85.5108 -5.11683 -7.19251 30.2139 0 0 13.8177 -3.00589 -24.4357 18.4982 -2.00529e-14 5.01323e-15 4.21821e-15 -2.7909 -3.18433e-15 0 0 0 13.2979 6.08408 24.1532 3.07298 0.000112888 0.000507996 -7.125 0 7.95139e-16 0 0 0 -11.3948 -1.89862 54.3354 0 0 0 -2.25496e-15 3.18055e-15 2.48481e-16 -18.4669 5.52384 -2.03938 93.1667 28.6458 -10.1004 -31.1614 -0.0178927 -0.033302 -16.4121 -4.31783 29.2999 -18.76 -1.00265e-14 0 -3.26347e-15 -2.9848 -1.59244e-15 0 0 0 -8.78733 -3.20422 19.8797 -4.133 -5.01323e-15 -1.00265e-14 7.125 3.18055e-15 -6.36111e-15 0 0 0 13.5986 9.63005 -10.3342 
91.4782 132.733 -41.6568 -3.26559 9.68771 -4.53805 0 0 0 -7.95139e-16 1.59028e-15 -0 9.46628 -9.93132 3.97552 -22.6002 -25.4269 -6.82435 13.8252 -37.9844 5.01323e-15 -4.2858 33.7385 14.069 14.7484 -40.5208 -1.00265e-14 -1.47444 -19.2264 -8.01005 1.00532 -2.7609 10.3019 -0.0516555 -4.02938 -1.46913 0 0 0 -7.95139e-16 1.59028e-15 -0 -9.13636 -9.93127 3.97552 24.7053 -4.37279 -1.82441 -13.3345 -36.6362 -1.00265e-14 5.20564 36.5715 -15.666 -14.9202 -40.993 -2.00529e-14 1.92323 17.1811 -9.57461 -1.02553 -2.81853 10.7352 0.505481 -12.4794 4.62039 0 0 0 0.45737 4.63884 0.807746 -0.108711 12.3982 -0.711138 -1.92888 -0.806168 1.0387 0.0938664 12.4477 -0.00445908 -2.34646 -3.38748 0.488053 0 0 0 15.6849 -13 15.5824 0.598532 9.88752 0.802972 -28.9456 29.2916 28.722 -0.558683 9.51172 -2.73268 -6.13065 17.6304 10.6634 0 0 0 1.14301e-15 1.59028e-15 -1.98785e-16 18.6635 6.60163 -1.74226 -84.498 -5.80127 -8.18098 30.2139 0 0 13.1268 -2.70161 -23.1638 18.4982 2.00529e-14 1.00265e-14 -7.14025e-16 -1.4609 3.18159e-15 0 0 0 13.43 6.06772 23.8775 3.07298 0.000112888 0.000507996 -7.125 0 -0 0 0 0 -11.2953 -1.82911 54.0795 0 0 0 1.14301e-15 1.59028e-15 -1.98785e-16 -18.4669 5.52384 -2.03938 93.5252 27.7789 -9.55043 -31.1614 -0.0178927 -0.033302 -16.1301 -4.16173 28.7636 -18.76 -1.00265e-14 1.50397e-14 7.33896e-16 -2.2054 -1.59146e-15 0 0 0 -10.5888 -4.09442 20.9035 -4.133 5.01323e-15 0 7.125 0 3.18055e-15 0 0 0 11.8507 8.74148 -9.08562 
91.5364 133.618 -39.9511 -3.17663 9.66224 -4.36362 0 0 0 -9.93923e-17 0 -7.95139e-16 9.46628 -9.93132 3.97552 -22.1238 -23.6473 -4.89009 13.8252 -37.9844 0 -3.63371 31.4434 12.8588 14.7484 -40.5208 1.00265e-14 -1.66482 -16.7392 -8.79202 1.00532 -2.7609 10.3019 -0.0891655 -5.28921 -1.93092 0 0 0 -9.93923e-17 0 -7.95139e-16 -9.13636 -9.93127 3.97552 23.8841 -11.9 -2.30946 -13.3345 -36.6362 -1.00265e-14 11.049 48.4613 -24.2573 -14.9202 -40.993 0 1.36636 15.3218 -7.92779 -1.02553 -2.81853 10.7352 0.241435 -8.67321 3.18273 0 0 0 -0.531003 5.75394 0.267347 -0.108711 12.3982 -0.711138 -1.67938 -1.15249 0.244449 0.0938664 12.4477 -0.00445908 -1.4741 -4.41589 0.111732 0 0 0 15.2968 -13.2627 16.1455 0.598532 9.88752 0.802972 -29.6713 29.6116 30.0988 -0.558683 9.51172 -2.73268 -5.84182 18.1141 11.0198 0 0 0 5.96354e-16 1.59028e-15 -7.95139e-16 18.6635 6.60163 -1.74226 -84.4149 -5.87923 -8.2517 30.2139 -2.00529e-14 5.01323e-15 12.6059 -2.48409 -22.2106 18.4982 -2.00529e-14 5.01323e-15 5.82182e-16 0.2553 3.18059e-15 0 0 0 13.6174 6.29857 24.3649 3.07298 0.000112888 0.000507996 -7.125 -1.19271e-15 -0 0 0 0 -11.0263 -1.8921 54.617 0 0 0 5.96354e-16 1.59028e-15 -7.95139e-16 -18.4669 5.52384 -2.03938 93.1818 27.6946 -10.1062 -31.1614 -0.0178927 -0.033302 -16.316 -4.26426 29.1169 -18.76 0 1.50397e-14 -1.41182e-15 -3.2115 3.18556e-15 0 0 0 -12.336 -4.92632 21.4384 -4.133 7.51985e-15 2.00529e-14 7.125 0 -3.18055e-15 0 0 0 10.2602 7.75104 -8.31137 
91.6696 134.641 -38.2871 -1.92489 8.83153 -4.9221 0 0 0 5.96354e-16 -4.77083e-15 -7.95139e-16 9.46628 -9.93132 3.97552 -22.8795 -20.5708 -2.99908 13.8252 -37.9844 2.50662e-15 -2.86482 28.3298 11.3162 14.7484 -40.5208 0 -1.49688 -13.1436 -8.79773 1.00532 -2.7609 10.3019 -0.00953675 -1.73539 -0.63189 0 0 0 5.96354e-16 -4.77083e-15 -7.95139e-16 -9.13636 -9.93127 3.97552 21.2885 -19.0204 -2.65685 -13.3345 -36.6362 -5.01323e-15 22.7335 59.7339 -38.5874 -14.9202 -40.993 -2.00529e-14 0.518974 15.192 -4.75514 -1.02553 -2.81853 10.7352 0.1213 6.16377 -2.25273 0 0 0 -1.69608 5.76233 0.280719 -0.108711 12.3982 -0.711138 -2.35754 -0.286799 0.171802 0.0938664 12.4477 -0.00445908 -1.50701 -3.5272 0.0941784 0 0 0 15.2219 -14.6788 16.2768 0.598532 9.88752 0.802972 -29.566 30.2909 30.3636 -0.558683 9.51172 -2.73268 -5.47589 18.7078 10.9063 0 0 0 1.49089e-15 -1.59028e-15 7.95139e-16 18.6635 6.60163 -1.74226 -83.7885 -5.77922 -10.1517 30.2139 -4.01059e-14 5.01323e-15 11.9144 -2.21075 -20.9517 18.4982 0 1.00265e-14 -1.05978e-15 2.3933 -3.18333e-15 0 0 0 13.6045 6.15811 23.9059 3.07298 0.000112888 0.000507996 -7.125 -3.97569e-16 -0 0 0 0 -11.1075 -1.81074 54.1433 0 0 0 1.49089e-15 -1.59028e-15 7.95139e-16 -18.4669 5.52384 -2.03938 93.2099 26.6561 -9.38095 -31.1614 -0.0178927 -0.033302 -16.6885 -4.47422 29.8275 -18.76 -1.00265e-14 -5.01323e-15 -0 -3.882 -0 0 0 0 -12.5407 -4.98573 21.3408 -4.133 -5.01323e-15 -2.00529e-14 7.125 3.18055e-15 -9.54166e-15 0 0 0 10.1077 7.61246 -8.38351 
91.7119 136.027 -36.6858 -1.19085 7.87902 -5.08856 0 0 0 -4.41391e-32 -3.18055e-15 -7.95139e-16 9.46628 -9.93132 3.97552 -23.1238 -16.9711 -0.695489 13.8252 -37.9844 0 -1.96567 23.8837 9.27462 14.7484 -40.5208 0 -1.0649 -8.46428 -8.26454 1.00532 -2.7609 10.3019 -0.149521 -6.84033 -2.50232 0 0 0 -4.41391e-32 -3.18055e-15 -7.95139e-16 -9.13636 -9.93127 3.97552 18.8067 -26.1497 -4.07054 -13.3345 -36.6362 1.00265e-14 44.6456 67.7607 -62.8901 -14.9202 -40.993 0 0.390929 14.0667 -4.17047 -1.02553 -2.81853 10.7352 0.189659 -7.69519 2.81891 0 0 0 -2.82217 7.01997 0.164231 -0.108711 12.3982 -0.711138 -2.49029 -0.1398 -0.1199 0.0938664 12.4477 -0.00445908 -0.9938 -4.0857 -0.0280713 0 0 0 15.4873 -13.3528 16.1138 0.598532 9.88752 0.802972 -30.3964 29.7986 30.3387 -0.558683 9.51172 -2.73268 -6.11221 18.4833 11.0261 0 0 0 -5.96354e-16 -1.59028e-15 -0 18.6635 6.60163 -1.74226 -83.76 -5.48655 -10.5556 30.2139 0 0 11.535 -2.06817 -20.2644 18.4982 0 5.01323e-15 2.43414e-15 4.4845 3.19032e-15 0 0 0 12.5426 5.51521 23.3645 3.07298 0.000112888 0.000507996 -7.125 0 -0 0 0 0 -12.299 -1.84112 53.3829 0 0 0 -5.96354e-16 -1.59028e-15 -0 -18.4669 5.52384 -2.03938 92.9831 25.5598 -9.21495 -31.1614 -0.0178927 -0.033302 -16.3709 -4.29482 29.2214 -18.76 5.01323e-15 0 -7.95139e-15 -3.1155 -0 0 0 0 -12.758 -5.15451 21.6425 -4.133 -7.51985e-15 -1.00265e-14 7.125 1.59028e-15 9.54166e-15 0 0 0 9.86157 7.51509 -8.04374 
91.8017 137.366 -35.1324 -0.292076 7.05451 -5.38781 0 0 0 -1.10348e-32 7.95139e-16 7.95139e-16 9.46628 -9.93132 3.97552 -23.9051 -12.9329 0.712372 13.8252 -37.9844 0 -1.21864 19.092 7.23735 14.7484 -40.5208 1.00265e-14 -0.458898 -3.78641 -6.50917 1.00532 -2.7609 10.3019 -0.141734 -6.66093 -2.43605 0 0 0 -1.10348e-32 7.95139e-16 7.95139e-16 -9.13636 -9.93127 3.97552 15.6987 -32.727 -5.44093 -13.3345 -36.6362 7.51985e-15 74.0186 69.9486 -94.2769 -14.9202 -40.993 0 0.777748 17.0735 -5.77889 -1.02553 -2.81853 10.7352 0.131141 -6.40709 2.34244 0 0 0 -3.82923 7.01939 -0.0717377 -0.108711 12.3982 -0.711138 -2.57013 0.53358 -0.490821 0.0938664 12.4477 -0.00445908 -0.470764 -3.37778 -0.206459 0 0 0 15.2304 -13.0013 16.0635 0.598532 9.88752 0.802972 -31.0675 29.8207 30.636 -0.558683 9.51172 -2.73268 -6.31244 18.6044 11.0727 0 0 0 5.96354e-16 0 7.95139e-16 18.6635 6.60163 -1.74226 -84.2558 -4.80397 -11.2598 30.2139 0 0 11.935 -2.2186 -20.9892 18.4982 0 7.51985e-15 -2.20761e-15 4.981 -3.19261e-15 0 0 0 12.0547 5.87381 25.6043 3.07298 0.000112888 0.000507996 -7.125 7.95139e-16 7.95139e-16 0 0 0 -12.4979 -2.36788 55.5585 0 0 0 5.96354e-16 0 7.95139e-16 -18.4669 5.52384 -2.03938 92.2077 25.0805 -8.46708 -31.1614 -0.0178927 -0.033302 -16.0945 -4.14235 28.6962 -18.76 0 0 1.04171e-16 -1.8759 3.18226e-15 0 0 0 -12.4957 -5.18573 22.1879 -4.133 7.51985e-15 1.00265e-14 7.125 -1.59028e-15 3.18055e-15 0 0 0 9.96766 7.74443 -7.52038 
